<svg width="50" height="50" viewBox="0 0 50 50" fill="none" xmlns="http://www.w3.org/2000/svg">
<g clip-path="url(#clip0)">
<path d="M35.335 32.0874C35.295 32.0075 35.2507 31.9299 35.2023 31.8549C33.8696 30.2199 32.6451 28.4775 31.1745 26.98C29.5343 25.3133 28.7728 23.4704 29.1501 21.166C29.1588 21.1114 29.1309 21.0427 29.1501 20.9898C29.3247 20.6727 29.4226 20.2622 29.6846 20.0684C30.4234 19.5152 31.2932 19.1311 31.9971 18.5409C34.1193 16.7633 36.5158 16.129 39.2318 16.4444C39.8152 16.5113 40.1925 16.6435 40.5209 17.1491C41.1898 18.1674 41.9287 19.1382 42.6972 20.2093C44.0229 17.2266 45.305 14.3778 46.5399 11.5096C46.6447 11.2647 46.5399 10.8454 46.3896 10.5846C45.3958 8.79109 44.3391 7.02752 43.34 5.23225C43.0832 4.77241 42.7933 4.61914 42.2832 4.63323C39.9602 4.69137 37.6371 4.73013 35.3158 4.72837C34.6482 4.73688 33.9829 4.64847 33.3403 4.46586C28.6057 3.03175 23.8775 1.57357 19.1557 0.0913008C18.9249 0.00529481 18.6767 -0.0220152 18.4329 0.0117871C18.1892 0.0455894 17.9575 0.139462 17.7583 0.285099C12.2296 3.87096 6.69438 7.44566 1.1528 11.0092C0.803465 11.233 0.464613 11.4637 0.129253 11.6875C1.02879 13.3718 2.78069 13.7418 4.45574 12.6512C9.05645 9.6438 13.6484 6.62055 18.2544 3.62196C18.5304 3.44578 18.953 3.2555 19.2255 3.34711C21.2255 4.03774 23.2027 4.79532 25.4 5.6128C24.2105 6.15367 23.145 6.51484 22.2106 7.09271C20.6194 8.07404 19.0788 8.20089 17.4125 7.32879C17.133 7.18256 16.5863 7.28122 16.2999 7.47326C14.8781 8.4264 13.5052 9.44296 12.1079 10.4454C10.5009 11.6082 10.473 11.6223 11.0756 13.5638C11.273 14.1998 11.121 14.5011 10.6022 14.8658C7.33774 17.1561 4.09942 19.4711 0.854119 21.7826C0.576399 21.9888 0.286453 22.1984 0 22.4186C1.1266 23.9408 2.73702 24.2139 4.24265 23.1533C7.08622 21.1507 9.91872 19.1294 12.7402 17.0892C12.9541 16.9147 13.2049 16.7922 13.4732 16.7311C13.7416 16.67 14.0202 16.6719 14.2877 16.7368C15.3165 16.9553 16.3662 17.0733 17.3968 17.2337C17.4865 16.873 17.5046 16.4981 17.4501 16.1304C17.3956 15.7626 17.2694 15.4094 17.079 15.0911C16.8886 14.7728 16.6376 14.4956 16.3405 14.2755C16.0434 14.0554 15.7061 13.8967 15.3479 13.8087C15.1313 13.7523 14.8833 13.7647 14.6964 13.6607C14.5095 13.5568 14.2388 13.3577 14.1724 13.148C14.1253 12.9983 14.3017 12.7023 14.4589 12.5737C14.9113 12.1984 15.4562 11.9253 15.8737 11.5166C16.8169 10.5969 17.809 10.4401 18.9426 11.1061C19.6028 11.4937 20.2264 11.3898 20.918 11.0621C23.7034 9.7501 26.5074 8.47749 29.33 7.24423C29.8569 7.02858 30.4387 6.98966 30.9893 7.13323C32.8639 7.70595 34.8242 7.93976 36.7795 7.82386C37.6371 7.7622 38.5035 7.81329 39.41 7.81329C39.4843 8.14607 39.5264 8.48534 39.5357 8.82633C39.4868 9.66671 39.8484 10.2358 40.4772 10.7643C41.251 11.4038 41.9444 12.142 42.7094 12.8785L42.0824 13.8087C41.5758 13.6325 41.209 13.4088 40.8405 13.4017C38.8819 13.3665 36.9233 13.3665 34.9647 13.4017C34.5791 13.4164 34.2037 13.5311 33.8748 13.7347C31.4749 15.2375 29.1047 16.7862 26.6995 18.2802C26.193 18.5938 26.0428 18.9567 26.0567 19.5134C26.0882 20.8383 26.1091 22.1685 26.0445 23.4916C26.0068 23.9145 25.8107 24.3071 25.4961 24.5892C23.1468 26.4602 20.7574 28.289 18.3836 30.1213C16.6562 31.4585 14.9287 32.7974 13.1436 34.1875C16.0641 38.4898 18.9496 42.7411 21.8316 46.9905C23.3459 46.0427 23.7092 44.376 22.7206 42.8538C21.6586 41.2259 20.5408 39.6403 19.4526 38.0282C18.7539 36.987 18.0553 35.9423 17.3059 34.8429L27.2619 27.1579L31.0068 31.536L23.7459 37.1826L32.4408 49.9926C33.9569 48.9849 34.3027 47.3112 33.3141 45.8277C31.8172 43.5779 30.2854 41.3528 28.7728 39.117C28.4933 38.7048 28.2191 38.2907 27.9204 37.8415L35.335 32.0874ZM11.231 43.999C12.721 42.9895 13.079 41.3387 12.1288 39.8781C11.0267 38.178 9.85817 36.5201 8.72633 34.8411C8.06609 33.8686 7.41109 32.8908 6.7264 31.8778C6.96744 31.6699 7.14735 31.5007 7.34123 31.3492C9.85642 29.3713 12.3728 27.3946 14.8903 25.419C17.2745 23.5462 19.6709 21.6875 22.0394 19.7971C23.4717 18.6519 23.6516 16.765 22.4481 15.5917L2.52742 31.1836L11.231 43.999ZM31.9971 39.2879C33.4678 41.2259 34.9001 43.1339 36.376 45.0067C36.5123 45.1829 36.9751 45.2463 37.2109 45.1583C41.2754 43.6607 45.3259 42.1191 49.3887 40.6181C49.876 40.4419 50.0035 40.1864 50 39.6967C49.9773 37.2707 50 34.8446 49.986 32.4186C49.9733 32.1972 49.9483 31.9766 49.9109 31.758C47.2909 31.758 44.753 31.758 42.2081 31.7703C42.0885 31.7741 41.9708 31.802 41.8619 31.8522C41.7531 31.9024 41.6552 31.974 41.5741 32.0628C40.7951 33.1198 40.0528 34.191 39.3034 35.2552C40.4702 36.196 41.8081 36.1977 42.8911 35.3203C43.085 35.1653 43.2876 34.9063 43.4919 34.8993C44.6255 34.857 45.7626 34.8799 46.9608 34.8799C46.9608 35.9264 46.994 36.8566 46.9364 37.7798C46.9224 38.0018 46.6464 38.3084 46.4124 38.3982C43.7015 39.4553 40.975 40.4525 38.2624 41.4955C37.803 41.6716 37.5428 41.5571 37.2773 41.1819C36.8974 40.626 36.4893 40.0902 36.0546 39.5769C34.9735 38.3418 33.3753 38.2079 31.9971 39.2879ZM46.0578 20.789C44.4998 21.5413 43.9391 23.1709 44.6762 24.7248C45.0447 25.5018 45.4639 26.2541 45.8674 27.0293C43.9251 27.6741 43.1129 28.7012 43.3644 30.2005C44.4631 30.2005 45.5967 30.0596 46.6831 30.234C48.2848 30.4895 49.1057 29.7213 49.6367 28.3841C49.7188 28.178 49.7799 27.875 49.6908 27.7023C48.4944 25.3802 47.2717 23.0793 46.0578 20.789ZM31.5605 8.88975L24.6315 12.7111C24.6157 12.8133 24.5983 12.9172 24.5825 13.0194C24.931 13.1965 25.2924 13.3461 25.6637 13.4669C26.0131 13.5532 26.3816 13.4986 26.7344 13.5532C27.8331 13.7294 28.93 13.9056 30.0968 14.11C30.5719 12.4204 31.0382 10.759 31.564 8.88623L31.5605 8.88975ZM41.5514 20.6357H33.763L33.5744 20.8242C33.8119 21.1431 34.0023 21.5166 34.2975 21.7633C34.6748 22.0804 35.1516 22.2724 35.5551 22.5614C36.39 23.1604 37.2022 23.7946 38.0703 24.4377L41.5514 20.6357Z" fill="#1C1C1C"/>
<path d="M35.3353 32.0874L27.9173 37.8485C28.2159 38.2978 28.4902 38.7118 28.7696 39.1241C30.2857 41.3598 31.8176 43.585 33.3109 45.8348C34.2978 47.3182 33.952 48.992 32.4376 49.9997L23.7427 37.1896L31.0071 31.536L27.2605 27.1509L17.3045 34.8359C18.0434 35.9405 18.742 36.987 19.4529 38.0282C20.5411 39.6403 21.659 41.2259 22.7157 42.8538C23.7043 44.376 23.341 46.0427 21.8266 46.9905C18.9446 42.7411 16.0626 38.4898 13.1387 34.1875C14.9291 32.7974 16.6565 31.4585 18.3787 30.1213C20.7524 28.2819 23.1419 26.4602 25.4911 24.5892C25.8058 24.3071 26.0019 23.9145 26.0396 23.4916C26.1042 22.1685 26.0833 20.8383 26.0518 19.5134C26.0378 18.9497 26.1881 18.5867 26.6946 18.2802C29.0997 16.7862 31.47 15.2375 33.8699 13.7347C34.1991 13.5259 34.5765 13.4069 34.965 13.3894C36.9225 13.3565 38.8811 13.3565 40.8408 13.3894C41.2111 13.3894 41.5762 13.6237 42.0827 13.7964L42.7097 12.8661C41.9447 12.1368 41.2513 11.3986 40.4775 10.752C39.8487 10.2234 39.4872 9.65614 39.5361 8.814C39.5267 8.47301 39.4846 8.13374 39.4103 7.80096C38.5038 7.80096 37.6374 7.74987 36.7798 7.81153C34.8245 7.92743 32.8642 7.69362 30.9896 7.1209C30.439 6.97733 29.8573 7.01625 29.3303 7.2319C26.5054 8.46751 23.7014 9.74482 20.9184 11.0638C20.2197 11.3915 19.6031 11.4955 18.9429 11.1079C17.8093 10.4419 16.8172 10.5987 15.874 11.5184C15.4566 11.9253 14.9116 12.1984 14.4592 12.5754C14.302 12.7041 14.1256 13 14.1728 13.1498C14.2391 13.3595 14.4854 13.5444 14.6968 13.6625C14.9081 13.7805 15.1317 13.7541 15.3483 13.8105C15.7062 13.8985 16.0433 14.0571 16.3403 14.2771C16.6373 14.497 16.8882 14.7741 17.0786 15.0922C17.269 15.4104 17.3952 15.7633 17.4498 16.1309C17.5045 16.4984 17.4866 16.8732 17.3971 17.2337C16.3666 17.0733 15.3168 16.9553 14.288 16.7368C14.0206 16.6719 13.7419 16.67 13.4735 16.7311C13.2052 16.7922 12.9544 16.9147 12.7405 17.0892C9.92138 19.1317 7.08945 21.1531 4.24472 23.1533C2.7391 24.2104 1.12867 23.9409 0.0020752 22.4187C0.288528 22.2055 0.571488 21.9888 0.861434 21.7826C4.10673 19.4712 7.34505 17.1491 10.6096 14.8658C11.1336 14.5011 11.2803 14.1998 11.0829 13.5638C10.4803 11.6258 10.5083 11.6082 12.1152 10.4454C13.502 9.44296 14.8784 8.4264 16.2967 7.47326C16.5832 7.28123 17.1299 7.18257 17.4093 7.3288C19.0756 8.20089 20.6162 8.07404 22.2074 7.09271C23.1419 6.51484 24.2073 6.15367 25.3968 5.6128C23.1995 4.79532 21.2223 4.03774 19.2224 3.34712C18.9569 3.2555 18.5237 3.44225 18.2512 3.62196C13.6453 6.61703 9.05329 9.64381 4.45257 12.6512C2.78102 13.7418 1.02911 13.3718 0.129582 11.6875C0.464941 11.4638 0.80554 11.233 1.15313 11.0092C6.69005 7.43627 12.2258 3.86156 17.7604 0.285099C17.9596 0.139462 18.1913 0.0455894 18.435 0.0117871C18.6787 -0.0220152 18.927 0.00529482 19.1577 0.0913009C23.8807 1.57004 28.6089 3.02823 33.3424 4.46586C33.985 4.64847 34.6503 4.73688 35.3179 4.72837C37.6392 4.72837 39.9622 4.69137 42.2853 4.63323C42.7953 4.61914 43.0853 4.77242 43.342 5.23225C44.3411 7.02753 45.3979 8.79109 46.4004 10.5828C46.5454 10.8436 46.6555 11.2629 46.5507 11.5078C45.314 14.376 44.032 17.2249 42.708 20.2076C41.9395 19.1364 41.2006 18.1657 40.5317 17.1473C40.2033 16.6435 39.833 16.5113 39.2426 16.4426C36.5266 16.1272 34.1301 16.7615 32.0079 18.5392C31.3093 19.1294 30.4359 19.5134 29.6954 20.0666C29.4334 20.2604 29.3286 20.6709 29.1609 20.9881C29.1364 21.0321 29.1609 21.1008 29.1609 21.1643C28.7836 23.4775 29.5451 25.3203 31.1853 26.9782C32.656 28.4757 33.8804 30.2182 35.2131 31.8531C35.258 31.9289 35.2988 32.0072 35.3353 32.0874Z" fill="#1C1C1C"/>
<path d="M11.2311 43.9993L2.52747 31.1839L22.4394 15.5955C23.6429 16.7688 23.463 18.6557 22.0307 19.8009C19.6622 21.6913 17.2658 23.55 14.8816 25.4228C12.3676 27.3972 9.85239 29.3728 7.33603 31.3495C7.14215 31.5011 6.96225 31.6702 6.72121 31.8781C7.4059 32.8911 8.0609 33.8689 8.72114 34.8414C9.85647 36.5204 11.0215 38.1783 12.1236 39.8784C13.0738 41.339 12.7158 42.988 11.2311 43.9993Z" fill="#1C1C1C"/>
<path d="M31.9971 39.2882C33.3752 38.2065 34.9665 38.3404 36.0529 39.5772C36.4876 40.0905 36.8957 40.6263 37.2755 41.1822C37.541 41.5574 37.7995 41.6719 38.2607 41.4958C40.9732 40.4528 43.6998 39.4485 46.4106 38.3985C46.6359 38.3122 46.9119 38.0021 46.9346 37.7801C46.9922 36.8569 46.959 35.9267 46.959 34.8802C45.7591 34.8802 44.6238 34.8573 43.4902 34.8996C43.2858 34.8996 43.0832 35.1656 42.8893 35.3206C41.8064 36.2015 40.4685 36.2015 39.3017 35.2554C40.0527 34.1984 40.7951 33.1131 41.5723 32.0631C41.6535 31.9743 41.7513 31.9027 41.8602 31.8525C41.969 31.8023 42.0867 31.7744 42.2064 31.7706C44.7513 31.7512 47.2944 31.7583 49.9092 31.7583C49.9465 31.9769 49.9716 32.1975 49.9843 32.4189C49.9843 34.8449 49.9755 37.271 49.9982 39.697C49.9982 40.1867 49.8742 40.4387 49.3869 40.6184C45.3242 42.1194 41.2737 43.661 37.2092 45.1586C36.9734 45.2466 36.5105 45.1797 36.3743 45.007C34.9001 43.136 33.4678 41.2262 31.9971 39.2882Z" fill="#1C1C1C"/>
<path d="M46.0577 20.7893C47.2716 23.0796 48.4943 25.3841 49.689 27.6973C49.7781 27.8735 49.717 28.173 49.6349 28.3791C49.1109 29.7163 48.283 30.4845 46.6813 30.229C45.5966 30.0528 44.463 30.1956 43.3626 30.1956C43.1111 28.7015 43.9233 27.6744 45.8656 27.0243C45.4621 26.2491 45.0429 25.4968 44.6744 24.7199C43.939 23.1677 44.4997 21.5381 46.0577 20.7893Z" fill="#1C1C1C"/>
<path d="M31.564 8.88653C31.04 10.7593 30.5719 12.4207 30.0968 14.1103C28.93 13.9147 27.8261 13.7227 26.7345 13.5536C26.3851 13.4989 26.0061 13.5536 25.6638 13.4672C25.2925 13.3464 24.931 13.1968 24.5826 13.0197C24.5983 12.9175 24.6158 12.8136 24.6315 12.7114L31.564 8.88653Z" fill="#1C1C1C"/>
<path d="M41.5549 20.6325L38.0616 24.4345C37.1883 23.7844 36.3813 23.1572 35.5464 22.5581C35.1429 22.2692 34.6731 22.0772 34.2888 21.76C33.9936 21.5134 33.8032 21.1399 33.5657 20.821L33.7543 20.6325H41.5549ZM36.8249 21.9186C37.307 22.271 37.5847 22.4771 37.9149 22.7202L38.6135 21.9186H36.8249Z" fill="#1C1C1C"/>
</g>
<defs>
<clipPath id="clip0">
<rect width="50" height="50" fill="white"/>
</clipPath>
</defs>
</svg>
